<svg width="16" height="16" viewBox="0 0 16 16" fill="none" xmlns="http://www.w3.org/2000/svg">
<path d="M8 0C12.4187 0 16 3.58204 16 8C16 12.4187 12.4187 16 8 16C3.58204 16 0 12.4183 0 8C0 3.58204 3.58204 0 8 0Z" fill="#6C5CE7"/>
<path d="M8.29512 8.56491H11.335C11.3998 8.56491 11.4304 8.56491 11.4351 8.47995C11.4599 8.17071 11.4599 7.85966 11.4351 7.55006C11.4351 7.48994 11.4052 7.4651 11.34 7.4651H5.29017C5.21529 7.4651 5.19513 7.48994 5.19513 7.56014V8.45007C5.19513 8.56491 5.19513 8.56491 5.31501 8.56491H8.29512ZM11.0956 6.42505C11.1042 6.40237 11.1042 6.37753 11.0956 6.35521C11.0448 6.24469 10.9847 6.13921 10.9149 6.04021C10.8097 5.871 10.6859 5.71512 10.5448 5.57508C10.4782 5.49048 10.4011 5.41452 10.3147 5.35008C9.88202 4.9818 9.36757 4.72115 8.81461 4.59011C8.53561 4.52747 8.25048 4.49759 7.96464 4.50011H5.27973C5.20485 4.50011 5.19477 4.52999 5.19477 4.59515V6.36997C5.19477 6.44485 5.19477 6.46501 5.28981 6.46501H11.0596C11.0596 6.46501 11.1096 6.45493 11.1197 6.42505H11.0952H11.0956ZM11.0956 9.60496C11.0106 9.5956 10.9249 9.5956 10.84 9.60496H5.29521C5.22033 9.60496 5.19513 9.60496 5.19513 9.70504V11.4403C5.19513 11.5202 5.19513 11.5403 5.29521 11.5403H7.8552C7.9776 11.5497 8.1 11.5411 8.21988 11.5155C8.59141 11.4889 8.95681 11.4082 9.30529 11.2754C9.43201 11.2315 9.55442 11.1742 9.66998 11.1055H9.7049C10.305 10.7933 10.7925 10.303 11.0999 9.70108C11.0999 9.70108 11.1348 9.62548 11.0956 9.60568V9.60496ZM4.19036 12.44V12.4101V11.2451V10.8502V9.67516C4.19036 9.61 4.19036 9.60028 4.11044 9.60028H3.02539C2.96527 9.60028 2.94043 9.60028 2.94043 9.52036V8.57031H4.10036C4.16516 8.57031 4.19036 8.57031 4.19036 8.48535V7.54538C4.19036 7.48526 4.19036 7.4705 4.11044 7.4705H3.02539C2.96527 7.4705 2.94043 7.4705 2.94043 7.39058V6.51073C2.94043 6.45565 2.94043 6.44089 3.02035 6.44089H4.09532C4.1702 6.44089 4.19036 6.44089 4.19036 6.34585V3.65086C4.19036 3.57094 4.19036 3.55078 4.29044 3.55078H8.04024C8.3124 3.56158 8.58277 3.59146 8.85025 3.64078C9.40141 3.74266 9.93098 3.93959 10.4152 4.22075C10.7363 4.40975 11.0319 4.63799 11.295 4.90079C11.493 5.10636 11.6716 5.32884 11.83 5.56572C11.9873 5.80584 12.118 6.06253 12.2206 6.33073C12.2332 6.40057 12.3002 6.44773 12.37 6.43585H13.265C13.3798 6.43585 13.3798 6.43585 13.3849 6.54601V7.3661C13.3849 7.44602 13.355 7.46618 13.2747 7.46618H12.5846C12.5147 7.46618 12.4946 7.46618 12.4996 7.55618C12.527 7.86074 12.527 8.16639 12.4996 8.47095C12.4996 8.55591 12.4996 8.56599 12.595 8.56599H13.3845C13.4194 8.61099 13.3845 8.65599 13.3845 8.70135C13.3895 8.75931 13.3895 8.81799 13.3845 8.87595V9.48112C13.3845 9.56608 13.3597 9.59128 13.2844 9.59128H12.3394C12.2735 9.57868 12.2094 9.6208 12.1943 9.68632C11.9693 10.2713 11.6093 10.7959 11.1442 11.2163C10.9743 11.3693 10.7957 11.5133 10.6092 11.6462C10.4091 11.7614 10.2143 11.8813 10.0091 11.9763C9.63146 12.1462 9.23545 12.2715 8.82901 12.3511C8.44308 12.4202 8.05176 12.4515 7.659 12.4461H4.18892V12.4411L4.19036 12.44Z" fill="#FEFEFD"/>
</svg>
