<svg width="512" height="512" viewBox="0 0 512 512" fill="none" xmlns="http://www.w3.org/2000/svg">
<path d="M512 1.38989V256C512 397.38 397.38 512 256 512C210.701 512.016 166.21 500.007 127.072 477.201C87.9333 454.395 55.55 421.608 33.23 382.19C73.0565 389.581 113.767 390.949 154 386.25C354.57 363 503.87 197 512 1.38989Z" fill="#3E3685"/>
<path d="M505.68 0C475.61 193.93 307.92 342.38 105.56 342.38C73.808 342.415 42.1615 338.723 11.2702 331.38C3.77065 306.957 -0.0281626 281.548 0.000157176 256V0H505.68Z" fill="#3E3685"/>
<path d="M154 386.25C113.78 390.945 73.0835 389.577 33.27 382.19C55.5867 421.602 87.9637 454.385 127.095 477.191C166.226 499.997 210.708 512.009 256 512C356.54 512 443.54 454 485.41 369.68C425.109 368.856 365.452 357.151 309.31 335.13C261.57 362.588 208.716 379.984 154 386.25" fill="#9892D3"/>
<path d="M8.28013 0H0.000125781V256C-0.0251983 281.538 3.77358 306.937 11.2701 331.35C42.1615 338.693 73.808 342.385 105.56 342.35C158.278 342.416 210.498 332.153 259.27 312.14C137.51 248.06 45.2801 135.44 8.28013 0Z" fill="#9892D3"/>
</svg>
